<?xml version="1.0" encoding="UTF-8"?><svg xmlns="http://www.w3.org/2000/svg" viewBox="0 0 600 600"><defs><style>.c{fill:#2dd8e2;}.d{fill:#ee5f64;}.e{fill:#60ef66;}.f{fill:#e600ee;}.g{fill:#f1a860;}.h{fill:#0019ea;}.i{fill:#ede900;}.j{fill:#5e6dea;}.k{fill:#f19030;}.l{fill:#ee0008;}.m{fill:#2f43ea;}.n{fill:#00d6e2;}.o{fill:#f1c091;}.p{fill:#63b0f7;}.q{fill:#e62e90;}.r{fill:#8c97ea;}.s{fill:#8929ef;}.t{fill:#b2ee8f;}.u{fill:#edec8e;}.v{fill:#93ee5f;}.w{fill:#edea2f;}.x{fill:#2fef38;}.y{fill:#a560ef;}.a`{fill:#e6007a;}.aa{fill:#94c8f7;}.ab{fill:#eb8fee;}.ac{fill:#3198f7;}.ad{fill:#be8fef;}.ae{fill:#91f1c3;}.af{fill:#2ef193;}.ag{fill:#88dde2;}.ah{fill:#f17800;}.ai{fill:#00f17d;}.aj{fill:#5adae2;}.ak{fill:#e68abb;}.al{fill:#73ee2c;}.am{fill:#e727ee;}.an{fill:#57ee00;}.ao{fill:#7400ef;}.ap{fill:#e95fee;}.aq{fill:#e65ca6;}.ar{fill:#00ef0b;}.as{fill:#ee8f92;}.at{fill:#edeb5f;}.au{fill:#60f1ab;}.av{fill:#8fef94;}.aw{stroke:#000;stroke-miterlimit:10;stroke-width:6px;}.ax{fill:#0080f7;}.ay{fill:#ee3036;}</style></defs><g id="a"><g><circle class="as" cx="287.87" cy="56.36" r="56.36"/><circle class="ag" cx="287.87" cy="543.64" r="56.36"/><circle class="ab" cx="76.88" cy="178.18" r="56.36"/><circle class="av" cx="498.87" cy="421.82" r="56.36"/><circle class="ad" cx="56.36" cy="300" r="56.36"/><circle class="t" cx="543.64" cy="300" r="56.36"/><circle class="r" cx="76.88" cy="421.82" r="56.36"/><circle class="u" cx="498.87" cy="178.18" r="56.36"/><circle class="aa" cx="166.05" cy="511" r="56.36"/><circle class="o" cx="409.69" cy="89" r="56.36"/><circle class="ak" cx="167.95" cy="89" r="56.36"/><circle class="ae" cx="411.59" cy="511" r="56.36"/><circle class="d" cx="293.04" cy="160.07" r="32.37"/><circle class="aj" cx="293.04" cy="439.93" r="32.37"/><circle class="ap" cx="171.85" cy="230.04" r="32.37"/><circle class="e" cx="414.22" cy="369.96" r="32.37"/><circle class="y" cx="160.07" cy="300" r="32.37"/><circle class="v" cx="439.93" cy="300" r="32.37"/><circle class="j" cx="171.85" cy="369.96" r="32.37"/><circle class="at" cx="414.22" cy="230.04" r="32.37"/><circle class="p" cx="223.07" cy="421.18" r="32.37"/><circle class="g" cx="363" cy="178.82" r="32.37"/><circle class="aq" cx="224.16" cy="178.82" r="32.37"/><circle class="au" cx="364.09" cy="421.18" r="32.37"/><circle class="ay" cx="296.31" cy="225.86" r="17.15"/><circle class="c" cx="296.31" cy="374.14" r="17.15"/><circle class="am" cx="232.1" cy="262.93" r="17.15"/><circle class="x" cx="360.52" cy="337.07" r="17.15"/><circle class="s" cx="225.86" cy="300" r="17.15"/><circle class="al" cx="374.14" cy="300" r="17.15"/><circle class="m" cx="232.1" cy="337.07" r="17.15"/><circle class="w" cx="360.52" cy="262.93" r="17.15"/><circle class="ac" cx="259.24" cy="364.21" r="17.15"/><circle class="k" cx="333.38" cy="235.79" r="17.15"/><circle class="q" cx="259.82" cy="235.79" r="17.15"/><circle class="af" cx="333.96" cy="364.21" r="17.15"/><g><circle class="l" cx="298.16" cy="262.99" r="8.56"/><circle class="n" cx="298.16" cy="337.01" r="8.56"/><circle class="f" cx="266.1" cy="281.49" r="8.56"/><circle class="ar" cx="330.21" cy="318.51" r="8.56"/><circle class="ao" cx="262.99" cy="300" r="8.56"/><circle class="an" cx="337.01" cy="300" r="8.56"/><circle class="h" cx="266.1" cy="318.51" r="8.56"/><circle class="i" cx="330.21" cy="281.49" r="8.56"/><circle class="ax" cx="279.65" cy="332.05" r="8.56"/><circle class="ah" cx="316.66" cy="267.95" r="8.56"/><circle class="a`" cx="279.94" cy="267.95" r="8.56"/><circle class="ai" cx="316.95" cy="332.05" r="8.56"/></g></g></g><g id="b"><line class="aw" x1="300.07" y1="299.38" x2="290.86" y2="74.74"/></g></svg>