<?xml version="1.0" encoding="UTF-8"?><svg xmlns="http://www.w3.org/2000/svg" viewBox="0 0 600 600"><defs><style>.c{fill:#f69;}.d{fill:#f06;}.e{fill:#0cc;}.f{fill:#f99;}.g{fill:#9cc;}.h{fill:#3f3;}.i{fill:#6f3;}.j{fill:#0f6;}.k{fill:#99f;}.l{fill:#f60;}.m{fill:#f93;}.n{fill:#f96;}.o{fill:#33f;}.p{fill:#9f9;}.q{fill:#6f6;}.r{fill:#9f6;}.s{fill:#c9f;}.t{fill:#ff9;}.u{fill:#f3f;}.v{fill:blue;}.w{fill:#f66;}.x{fill:#f9c;}.y{fill:#ff3;}.a{fill:#f6f;}.aa{fill:#f9f;}.ab{fill:#ff6;}.ac{fill:#f39;}.ad{fill:#69f;}.ae{fill:#3f9;}.af{fill:#f33;}.ag{fill:#09f;}.ah{fill:#6f9;}.ai{fill:#fc9;}.aj{fill:lime;}.ak{fill:#66f;}.al{fill:#96f;}.am{fill:#6f0;}.an{fill:#93f;}.ao{fill:#f0f;}.ap{fill:#60f;}.aq{fill:#9fc;}.ar{fill:#6cc;}.as{fill:#9cf;}.at{fill:#39f;}.au{fill:#3cc;}.av{stroke:#000;stroke-miterlimit:10;stroke-width:6px;}.aw{fill:red;}.ax{fill:#ff0;}</style></defs><g id="a"><g><circle class="f" cx="287.87" cy="56.36" r="56.36"/><circle class="g" cx="287.87" cy="543.64" r="56.36"/><circle class="aa" cx="76.88" cy="178.18" r="56.36"/><circle class="p" cx="498.87" cy="421.82" r="56.36"/><circle class="s" cx="56.36" cy="300" r="56.36"/><circle class="p" cx="543.64" cy="300" r="56.36"/><circle class="k" cx="76.88" cy="421.82" r="56.36"/><circle class="t" cx="498.87" cy="178.18" r="56.36"/><circle class="as" cx="166.05" cy="511" r="56.36"/><circle class="ai" cx="409.69" cy="89" r="56.36"/><circle class="x" cx="167.95" cy="89" r="56.36"/><circle class="aq" cx="411.59" cy="511" r="56.36"/><circle class="w" cx="293.04" cy="160.07" r="32.37"/><circle class="ar" cx="293.04" cy="439.93" r="32.37"/><circle class="a" cx="171.85" cy="230.04" r="32.37"/><circle class="q" cx="414.22" cy="369.96" r="32.37"/><circle class="al" cx="160.07" cy="300" r="32.37"/><circle class="r" cx="439.93" cy="300" r="32.37"/><circle class="ak" cx="171.85" cy="369.96" r="32.37"/><circle class="ab" cx="414.22" cy="230.04" r="32.37"/><circle class="ad" cx="223.07" cy="421.18" r="32.37"/><circle class="n" cx="363" cy="178.82" r="32.37"/><circle class="c" cx="224.16" cy="178.82" r="32.37"/><circle class="ah" cx="364.09" cy="421.18" r="32.37"/><circle class="af" cx="296.31" cy="225.86" r="17.15"/><circle class="au" cx="296.31" cy="374.14" r="17.15"/><circle class="u" cx="232.1" cy="262.93" r="17.15"/><circle class="h" cx="360.52" cy="337.07" r="17.15"/><circle class="an" cx="225.86" cy="300" r="17.15"/><circle class="i" cx="374.14" cy="300" r="17.15"/><circle class="o" cx="232.1" cy="337.07" r="17.15"/><circle class="y" cx="360.52" cy="262.93" r="17.15"/><circle class="at" cx="259.24" cy="364.21" r="17.15"/><circle class="m" cx="333.38" cy="235.79" r="17.15"/><circle class="ac" cx="259.82" cy="235.79" r="17.15"/><circle class="ae" cx="333.96" cy="364.21" r="17.15"/><circle class="aw" cx="298.16" cy="262.99" r="8.56"/><circle class="e" cx="298.16" cy="337.01" r="8.56"/><circle class="ao" cx="266.1" cy="281.49" r="8.56"/><circle class="aj" cx="330.21" cy="318.51" r="8.56"/><circle class="ap" cx="262.99" cy="300" r="8.56"/><circle class="am" cx="337.01" cy="300" r="8.56"/><circle class="v" cx="266.1" cy="318.51" r="8.56"/><circle class="ax" cx="330.21" cy="281.49" r="8.56"/><circle class="ag" cx="279.65" cy="332.05" r="8.56"/><circle class="l" cx="316.66" cy="267.95" r="8.56"/><circle class="d" cx="279.94" cy="267.95" r="8.56"/><circle class="j" cx="316.95" cy="332.05" r="8.56"/></g></g><g id="b"><line class="av" x1="300.07" y1="300" x2="290.86" y2="75.36"/><line class="av" x1="300.07" y1="300" x2="178.25" y2="105.46"/><line class="av" x1="300.07" y1="300" x2="401.14" y2="105.46"/></g></svg>