<svg xmlns="http://www.w3.org/2000/svg" viewBox="0 0 600 600"><defs><style>.cls-1{fill:#ee3036;}.cls-2{fill:#2dd8e2;}.cls-3{fill:#e727ee;}.cls-4{fill:#2fef38;}.cls-5{fill:#8929ef;}.cls-6{fill:#73ee2c;}.cls-7{fill:#2f43ea;}.cls-8{fill:#edea2f;}.cls-9{fill:#3198f7;}.cls-10{fill:#f19030;}.cls-11{fill:#e62e90;}.cls-12{fill:#2ef193;}.cls-13{fill:#ee5f64;}.cls-14{fill:#5adae2;}.cls-15{fill:#e95fee;}.cls-16{fill:#60ef66;}.cls-17{fill:#a560ef;}.cls-18{fill:#93ee5f;}.cls-19{fill:#5e6dea;}.cls-20{fill:#edeb5f;}.cls-21{fill:#63b0f7;}.cls-22{fill:#f1a860;}.cls-23{fill:#e65ca6;}.cls-24{fill:#60f1ab;}.cls-25{fill:#ee8f92;}.cls-26{fill:#88dde2;}.cls-27{fill:#eb8fee;}.cls-28{fill:#8fef94;}.cls-29{fill:#be8fef;}.cls-30{fill:#b2ee8f;}.cls-31{fill:#8c97ea;}.cls-32{fill:#edec8e;}.cls-33{fill:#94c8f7;}.cls-34{fill:#f1c091;}.cls-35{fill:#e68abb;}.cls-36{fill:#91f1c3;}.cls-37{fill:#eebec0;}.cls-38{fill:#b5dee2;}.cls-39{fill:#ecbeee;}.cls-40{fill:#bfefc1;}.cls-41{fill:#d6bfef;}.cls-42{fill:#d0eebe;}.cls-43{fill:#bbc0ea;}.cls-44{fill:#ededbe;}.cls-45{fill:#c6dff7;}.cls-46{fill:#f1d9c1;}.cls-47{fill:#e6b8d1;}.cls-48{fill:#c1f1da;}.cls-49{fill:#fff;stroke:#fff;stroke-miterlimit:10;stroke-width:6px;}</style></defs><g id="Layer_1" data-name="Layer 1"><circle class="cls-1" cx="288.82" cy="75.36" r="51.97"/><circle class="cls-2" cx="288.82" cy="524.64" r="51.97"/><circle class="cls-3" cx="94.28" cy="187.68" r="51.97"/><circle class="cls-4" cx="483.36" cy="412.32" r="51.97"/><circle class="cls-5" cx="75.36" cy="300" r="51.97"/><circle class="cls-6" cx="524.64" cy="300" r="51.97"/><circle class="cls-7" cx="94.28" cy="412.32" r="51.97"/><circle class="cls-8" cx="483.36" cy="187.68" r="51.97"/><circle class="cls-9" cx="176.5" cy="494.54" r="51.97"/><circle class="cls-10" cx="401.14" cy="105.46" r="51.97"/><circle class="cls-11" cx="178.25" cy="105.46" r="51.97"/><circle class="cls-12" cx="402.89" cy="494.54" r="51.97"/><circle class="cls-13" cx="293.29" cy="165.29" r="31.16"/><circle class="cls-14" cx="293.29" cy="434.71" r="31.16"/><circle class="cls-15" cx="176.63" cy="232.64" r="31.16"/><circle class="cls-16" cx="409.96" cy="367.36" r="31.16"/><circle class="cls-17" cx="165.29" cy="300" r="31.16"/><circle class="cls-18" cx="434.71" cy="300" r="31.16"/><circle class="cls-19" cx="176.63" cy="367.36" r="31.16"/><circle class="cls-20" cx="409.96" cy="232.64" r="31.16"/><circle class="cls-21" cx="225.94" cy="416.66" r="31.16"/><circle class="cls-22" cx="360.65" cy="183.34" r="31.16"/><circle class="cls-23" cx="226.99" cy="183.34" r="31.16"/><circle class="cls-24" cx="361.7" cy="416.66" r="31.16"/><circle class="cls-25" cx="296.28" cy="225.28" r="17.29"/><circle class="cls-26" cx="296.28" cy="374.72" r="17.29"/><circle class="cls-27" cx="231.57" cy="262.64" r="17.29"/><circle class="cls-28" cx="360.99" cy="337.36" r="17.29"/><circle class="cls-29" cx="225.28" cy="300" r="17.29"/><circle class="cls-30" cx="374.72" cy="300" r="17.29"/><circle class="cls-31" cx="231.57" cy="337.36" r="17.29"/><circle class="cls-32" cx="360.99" cy="262.64" r="17.29"/><circle class="cls-33" cx="258.92" cy="364.71" r="17.29"/><circle class="cls-34" cx="333.64" cy="235.29" r="17.29"/><circle class="cls-35" cx="259.5" cy="235.29" r="17.29"/><circle class="cls-36" cx="334.22" cy="364.71" r="17.29"/><circle class="cls-37" cx="298.03" cy="260.41" r="9.16"/><circle class="cls-38" cx="298.03" cy="339.59" r="9.16"/><circle class="cls-39" cx="263.74" cy="280.2" r="9.16"/><circle class="cls-40" cx="332.32" cy="319.8" r="9.16"/><circle class="cls-41" cx="260.41" cy="300" r="9.16"/><circle class="cls-42" cx="339.59" cy="300" r="9.16"/><circle class="cls-43" cx="263.74" cy="319.8" r="9.16"/><circle class="cls-44" cx="332.32" cy="280.2" r="9.16"/><circle class="cls-45" cx="278.23" cy="334.29" r="9.16"/><circle class="cls-46" cx="317.83" cy="265.71" r="9.16"/><circle class="cls-47" cx="278.54" cy="265.71" r="9.16"/><circle class="cls-48" cx="318.13" cy="334.29" r="9.16"/></g><g id="Layer_2" data-name="Layer 2"><line class="cls-49" x1="300.07" y1="300" x2="290.86" y2="75.36"/><line class="cls-49" x1="94.28" y1="412.32" x2="300.07" y2="300"/><line class="cls-49" x1="300.07" y1="300" x2="483.36" y2="416.66"/></g></svg>